<svg xmlns="http://www.w3.org/2000/svg" xmlns:xlink="http://www.w3.org/1999/xlink" viewBox="0 0 459.33 243.27"><defs><style>.cls-1{isolation:isolate;}.cls-2{fill:#fff;}.cls-3{fill:#fef9fc;}.cls-4{fill:url(#linear-gradient);}.cls-5,.cls-9{mix-blend-mode:multiply;}.cls-5{fill:url(#linear-gradient-2);}.cls-6{fill:url(#linear-gradient-3);}.cls-7{fill:url(#linear-gradient-4);}.cls-8{fill:url(#linear-gradient-5);}.cls-9{fill:url(#linear-gradient-6);}</style><linearGradient id="linear-gradient" x1="102.98" y1="62.95" x2="202.69" y2="62.95" gradientUnits="userSpaceOnUse"><stop offset="0" stop-color="#00a47b"/><stop offset="1" stop-color="#bfff3d"/></linearGradient><linearGradient id="linear-gradient-2" x1="102.98" y1="39.56" x2="202.69" y2="39.56" gradientUnits="userSpaceOnUse"><stop offset="0" stop-color="#006dbb"/><stop offset="1" stop-color="#bfffeb"/></linearGradient><linearGradient id="linear-gradient-3" x1="101.7" y1="-51.79" x2="101.7" y2="85.22" gradientUnits="userSpaceOnUse"><stop offset="0" stop-color="#540d81"/><stop offset="1" stop-color="#352dff"/></linearGradient><linearGradient id="linear-gradient-4" y1="39.56" x2="102.98" y2="39.56" gradientUnits="userSpaceOnUse"><stop offset="0" stop-color="#ff00b8"/><stop offset="1" stop-color="#7c0051"/></linearGradient><linearGradient id="linear-gradient-5" x1="101.34" y1="17.33" x2="101.34" y2="183.87" gradientUnits="userSpaceOnUse"><stop offset="0" stop-color="#ec1700"/><stop offset="1" stop-color="#ecfa00"/></linearGradient><linearGradient id="linear-gradient-6" y1="62.95" x2="102.98" y2="62.95" gradientUnits="userSpaceOnUse"><stop offset="0" stop-color="#f60"/><stop offset="1" stop-color="#9f0800"/></linearGradient></defs><title>Asset 2</title><g class="cls-1"><g id="Layer_2" data-name="Layer 2"><g id="Layer_1-2" data-name="Layer 1"><path class="cls-2" d="M47.25,242.64h-8.4a4,4,0,0,1-3.68-2.43L11.61,184.62A4,4,0,1,1,19,181.5L41.5,234.64h3.12l22.93-53.16a4,4,0,1,1,7.35,3.17l-24,55.58A4,4,0,0,1,47.25,242.64Z"/><path class="cls-2" d="M127.54,242.64a4,4,0,0,1-3.71-2.49l-21.66-53.09H100.9L78.84,240.18a4,4,0,1,1-7.38-3.07l23.08-55.58a4,4,0,0,1,3.69-2.47h6.63a4,4,0,0,1,3.7,2.49l22.68,55.58a4,4,0,0,1-3.7,5.51Z"/><path class="cls-2" d="M279.19,242.64a4,4,0,0,1-3.7-2.49l-21.66-53.09h-1.27L230.5,240.18a4,4,0,0,1-7.39-3.07l23.09-55.58a4,4,0,0,1,3.69-2.47h6.63a4,4,0,0,1,3.7,2.49l22.68,55.58a4,4,0,0,1-3.71,5.51Z"/><path class="cls-2" d="M455.33,242.64a4,4,0,0,1-3.7-2.49L430,187.06H428.7l-22.06,53.12a4,4,0,1,1-7.39-3.07l23.09-55.58a4,4,0,0,1,3.69-2.47h6.63a4,4,0,0,1,3.7,2.49L459,237.13a4,4,0,0,1-3.71,5.51Z"/><path class="cls-2" d="M373.24,224.73c-4.51,0-9-1.52-11.37-6.25-7.06-14.07-15.85-33.58-15.94-33.77a4,4,0,0,1,7.29-3.29c.09.19,8.82,19.55,15.8,33.47,1.39,2.78,6.66,1.77,9.49.92l16.28-34.46a4,4,0,0,1,7.23,3.42l-17,36a4,4,0,0,1-2.09,2A26.56,26.56,0,0,1,373.24,224.73Z"/><path class="cls-2" d="M146.1,243.27a4,4,0,0,1-4-4V183.06a4,4,0,0,1,8,0v56.21A4,4,0,0,1,146.1,243.27Z"/><path class="cls-2" d="M169.19,243.27a4,4,0,0,1-4-4V183.06a4,4,0,0,1,4-4h29.59c11.77,0,18.8,8.15,18.8,21.81a20,20,0,0,1-18,19.85L213.34,236a4,4,0,1,1-5.93,5.37L187.65,219.5a4,4,0,0,1,3-6.68h7a12,12,0,0,0,12-11.95c0-9.16-3.63-13.81-10.8-13.81H173.19v52.21A4,4,0,0,1,169.19,243.27Z"/><path class="cls-2" d="M371.33,243.27a4,4,0,0,1-1.76-.41,4,4,0,0,1-1.83-5.35L383,206.42a4,4,0,1,1,7.19,3.51L374.92,241A4,4,0,0,1,371.33,243.27Z"/><path class="cls-2" d="M335.22,242.64H309.47c-5.47,0-9.88-1.7-13.1-5-5.13-5.33-5.14-12.72-5.1-13.94V200c0-5.19,0-21,20.57-21h21.61a4,4,0,0,1,0,8H311.84c-10.57,0-12.57,4.56-12.57,13v23.69a.86.86,0,0,1,0,.16s-.1,5.1,2.91,8.2c1.68,1.72,4.07,2.56,7.3,2.56h21.75V215.17H318.94a4,4,0,0,1,0-8h16.28a4,4,0,0,1,4,4v27.47A4,4,0,0,1,335.22,242.64Z"/><path class="cls-2" d="M271.93,172.72H235.69a4,4,0,0,1,0-8h36.24a4,4,0,0,1,0,8Z"/><polygon class="cls-3" points="0 0 101.34 169.16 202.69 0 0 0"/><polygon class="cls-4" points="202.69 0 102.98 79.13 127.26 125.89 202.69 0"/><polygon class="cls-5" points="102.98 79.13 168.55 57.45 202.69 0 138.32 0 102.98 79.13"/><polygon class="cls-6" points="102.98 79.13 138.32 0 65.07 0 102.98 79.13"/><polygon class="cls-7" points="102.98 79.13 65.07 0 0 0 32.07 53.45 102.98 79.13"/><polygon class="cls-8" points="102.98 79.13 75.42 125.89 101.34 169.16 127.26 125.89 102.98 79.13"/><polygon class="cls-9" points="102.98 79.13 0 0 75.42 125.89 102.98 79.13"/></g></g></g></svg>